<?xml version="1.0" encoding="utf-8"?>
<!-- Generator: Adobe Illustrator 19.0.0, SVG Export Plug-In . SVG Version: 6.00 Build 0)  -->
<svg version="1.1" id="Layer_1" xmlns="http://www.w3.org/2000/svg" xmlns:xlink="http://www.w3.org/1999/xlink" x="0px" y="0px"
	 viewBox="0 0 450 126" style="enable-background:new 0 0 450 126;" xml:space="preserve">
<style type="text/css">
	.st0{fill:#282829;}
</style>
<g id="XMLID_1_">
	<g id="XMLID_4_">
		<path id="XMLID_5_" class="st0" d="M37.4,50.1c-1.7,17.7-4.4,40.6-8.3,55.7L9.9,98.1c4.1-14,7.6-33,9-51.4L37.4,50.1z M63.5,40.2
			v58c0,6.3,0.8,7.1,6.5,7.1h14.9c5.8,0,6.8-3.7,7.8-22.9c4.3,3.2,12.5,6.6,17.6,7.9c-1.9,24.6-6.8,32.4-23.6,32.4H67.4
			c-18.5,0-23.5-5.9-23.5-24.6v-58H63.5z M60.2,3.2c11.6,7,28.6,18,36.6,26l-14,14.9c-7.1-8-23.4-20-35.4-27.9L60.2,3.2z M116.9,42
			c7.2,15.4,13.7,34.8,16.4,48.2l-19.1,8c-1.9-13.2-8.3-33.7-14.9-49L116.9,42z"/>
	</g>
	<g id="XMLID_2_">
		<path id="XMLID_3_" class="st0" d="M190.8,50.1c-1.7,17.7-4.4,40.6-8.3,55.7l-19.3-7.8c4.1-14,7.6-33,9-51.4L190.8,50.1z
			 M216.9,40.2v58c0,6.3,0.8,7.1,6.5,7.1h14.9c5.8,0,6.8-3.7,7.8-22.9c4.3,3.2,12.5,6.6,17.6,7.9c-1.9,24.6-6.8,32.4-23.6,32.4
			h-19.1c-18.5,0-23.5-5.9-23.5-24.6v-58H216.9z M213.6,3.2c11.6,7,28.6,18,36.6,26l-14,14.9c-7.1-8-23.4-20-35.4-27.9L213.6,3.2z
			 M270.3,42c7.2,15.4,13.7,34.8,16.4,48.2l-19.1,8c-1.9-13.2-8.3-33.7-14.9-49L270.3,42z"/>
	</g>
	<g id="XMLID_14_">
		<path id="XMLID_15_" class="st0" d="M344.2,50.1c-1.7,17.7-4.4,40.6-8.3,55.7l-19.3-7.8c4.1-14,7.6-33,9-51.4L344.2,50.1z
			 M370.3,40.2v58c0,6.3,0.8,7.1,6.5,7.1h14.9c5.8,0,6.8-3.7,7.8-22.9c4.3,3.2,12.5,6.6,17.6,7.9c-1.9,24.6-6.8,32.4-23.6,32.4
			h-19.1c-18.5,0-23.5-5.9-23.5-24.6v-58H370.3z M367,3.2c11.6,7,28.6,18,36.6,26l-14,14.9c-7.1-8-23.4-20-35.4-27.9L367,3.2z
			 M423.7,42c7.2,15.4,13.7,34.8,16.4,48.2l-19.1,8c-1.9-13.2-8.3-33.7-14.9-49L423.7,42z"/>
	</g>
</g>
</svg>
